<?xml version="1.0" standalone="no"?>
<!DOCTYPE svg PUBLIC "-//W3C//DTD SVG 20010904//EN"
 "http://www.w3.org/TR/2001/REC-SVG-20010904/DTD/svg10.dtd">
<svg version="1.0" xmlns="http://www.w3.org/2000/svg"
 width="260.000000pt" height="260.000000pt" viewBox="0 0 260.000000 260.000000"
 preserveAspectRatio="xMidYMid meet">
<metadata>
Created by potrace 1.14, written by Peter Selinger 2001-2017
</metadata>
<g transform="translate(0.000000,260.000000) scale(0.100000,-0.100000)"
fill="#000000" stroke="none">
<path d="M224 2318 c-48 -23 -52 -86 -34 -465 17 -339 34 -406 112 -438 101
-40 314 -43 389 -5 38 20 80 53 108 84 9 10 24 27 33 37 26 28 35 49 57 136
26 100 26 157 2 248 -17 65 -68 180 -94 212 -37 45 -83 83 -120 101 -73 35
-117 52 -134 52 -9 0 -31 5 -49 12 -73 26 -136 -43 -103 -115 11 -25 86 -67
118 -67 30 0 105 -35 132 -61 29 -28 74 -118 89 -174 26 -103 2 -205 -65 -273
l-47 -47 -114 1 c-62 0 -116 2 -118 5 -10 9 -25 246 -31 464 -4 127 -11 242
-16 256 -16 42 -70 59 -115 37z"/>
<path d="M1110 1545 c-14 -8 -46 -14 -72 -15 -111 0 -171 -59 -137 -133 16
-35 52 -49 110 -41 47 6 49 5 49 -17 0 -13 -4 -40 -9 -59 -6 -19 -12 -73 -15
-120 -2 -47 -8 -93 -12 -103 -7 -20 -20 -20 -101 3 -34 10 -49 10 -72 0 -47
-19 -63 -82 -33 -128 12 -17 106 -52 167 -62 28 -4 77 -15 110 -23 93 -23 160
-29 188 -16 48 22 59 95 22 133 -15 15 -76 36 -105 36 -18 0 -18 45 -1 105 6
22 11 57 11 78 0 21 6 67 12 102 12 64 13 65 45 65 44 0 79 18 92 47 31 68
-13 123 -99 123 -22 0 -40 4 -40 8 0 11 -46 32 -68 32 -9 -1 -28 -7 -42 -15z"/>
<path d="M1533 1498 c-32 -16 -42 -50 -53 -188 -6 -69 -15 -180 -20 -248 -11
-132 -4 -187 28 -218 31 -32 102 -55 195 -65 50 -5 119 -14 153 -20 44 -8 67
-7 86 2 48 22 61 95 23 133 -23 23 -78 36 -200 47 -60 6 -113 14 -116 17 -7 7
-4 40 21 342 12 148 6 179 -36 199 -30 13 -52 13 -81 -1z"/>
<path d="M2176 1015 c-21 -7 -43 -20 -47 -27 -12 -18 -29 -79 -29 -103 0 -11
-15 -87 -34 -170 -81 -350 -89 -405 -65 -458 11 -25 47 -47 74 -47 27 0 63 22
74 47 6 13 11 45 11 71 0 41 22 147 33 158 2 2 28 -6 58 -18 106 -41 176 -33
199 23 22 51 -5 104 -58 114 -41 9 -93 25 -133 42 l-36 15 25 99 24 99 109 0
c59 0 119 5 132 11 25 11 47 47 47 74 0 27 -22 63 -47 74 -35 16 -289 14 -337
-4z"/>
</g>
</svg>
